mtllib materials.mtl
v 0.05495399 0.1833683 0.07773937
v 0.004222631 0.1522213 0.1173051
v 0.004222631 0.2025964 0.07901996
v -0.01425654 0.2278856 -0.03309783
v 0.08942312 0.1881094 0.03251494
v 0.1057358 0.1832907 -0.02500016
v 0.09869221 0.1348571 0.0346144
v 0.08720076 0.1920574 -0.08101501
v 0.05258861 0.1906464 -0.1229494
v 0.05958167 0.1372156 -0.1451812
v 0.1051918 0.139484 -0.08949738
v 0.004222602 0.1901989 -0.1384423
v -0.05518907 0.1566598 -0.1453186
v 0.004222602 0.1380585 -0.1780689
v -0.09378672 0.1653551 -0.09116188
v -0.1158093 0.1262329 -0.1060283
v -0.06822979 0.1791638 -0.02380409
v -0.0984441 0.1255838 -0.0190535
v -0.08124229 0.1876397 0.03269346
v -0.03646481 0.2142726 0.05739883
v -0.1092681 0.137853 0.05161244
v 0.2167227 -0.2005352 0.3740897
v 0.315681 -0.2205352 0.225
v -0.1582774 -0.2005351 0.3340898
v -0.2177413 -0.002017856 -0.02500008
v -0.2398725 -0.02701557 -0.0430728
v -0.231981 -0.1103038 -0.192135
v -0.1682776 -0.2205352 -0.3840898
v -0.1472601 0.0703615 -0.1272594
v -0.1915246 4.49419E-05 -0.1746671
v -0.1258792 0.108344 -0.1128261
v -0.187394 0.04467034 -0.0250001
v -0.1884419 0.01564574 -0.02891753
v -0.2163919 -0.02231193 0.08380169
v -0.2358145 -0.08695185 0.1370384
v -0.363786 -0.1942155 0.169179
v -0.4081386 -0.2072121 -0.01912167
v -0.2972358 -0.2105352 -0.2250001
v -0.07688746 0.08989573 -0.1892614
v 0.004222572 0.044626 -0.2490776
v -0.1049197 -0.03087723 -0.2534223
v 0.03422251 -0.2105353 -0.4050002
v 0.004222542 -0.03267312 -0.3078249
v 0.004222572 0.05168998 -0.243709
v 0.1967226 -0.2205353 -0.3540898
v 0.08501744 0.09086549 -0.1886231
v 0.1924071 -0.05669439 -0.1351086
v 0.1335711 0.05351424 -0.1101427
v 0.2956809 -0.2205353 -0.2050002
v 0.2545942 -0.06842566 -0.1900605
v 0.4081385 -0.2278856 -0.02550536
v 0.2742839 -0.05627084 -0.005383864
v 0.2216584 -0.06540287 0.0957265
v 0.2182271 0.0102272 -0.02500015
v 0.2369108 -0.07389688 0.1320774
v 0.128444 -0.04275489 0.226569
v 0.1258 -0.03461945 0.2212145
v 0.09585074 0.05753231 0.1605621
v 0.004222631 -0.1905351 0.4050002
v 0.01813525 -0.09201717 0.2430434
v 0.05378228 0.1361851 0.08574565
v 0.07109654 0.07619774 0.1301007
v 0.004222631 0.1061782 0.1522979
v -0.1218858 -0.04856098 0.2303907
v -0.1117714 -0.01960218 0.1761385
v -0.131652 0.09808886 0.06672281
v 0.1253708 0.0803653 0.06231493
v -0.1509801 -0.0483495 0.1766044
v -0.152011 0.03123629 0.08583257
v -0.06057698 0.08584821 0.1087173
v -0.06962627 0.1112872 0.08262727
v -0.05543333 0.106923 -0.1700933
v -0.1374806 -0.05622125 -0.2991163
v -0.3047944 -0.114132 -0.02215984
v 0.151675 -0.05385208 -0.2952668
v 0.09469536 0.01865566 -0.2204247
v 0.1164496 0.1334125 -0.002072848
v 0.01775613 0.05847597 0.1508248
v 0.01775613 -0.009771705 0.202693
vn 0.2420195 0.5870956 0.772493
vn 0.202477 0.9459108 0.2534876
vn 0.9508746 0.1755613 0.2549819
vn 0.3462798 0.93758 0.03215462
vn 0.7189178 0.3443855 -0.6037846
vn 0.09400501 0.9425079 -0.3206898
vn -0.2420178 0.5870948 -0.7724941
vn -0.6299568 0.5593492 -0.538779
vn -0.8416842 0.4939702 0.2180856
vn -0.6714169 0.6944151 -0.2588185
vn -0.6299564 0.5593495 0.5387793
vn 0.1769191 0.9659626 0.188722
vn -0.01325844 -0.9921568 0.124295
vn -0.4853406 0.7520688 -0.4459116
vn -0.2669344 0.6485996 -0.7127866
vn -0.8477824 0.1008837 -0.5206606
vn -0.7854785 0.6065673 0.1228805
vn -0.3833659 0.6530702 0.6530926
vn -0.6991934 0.6015487 -0.3863519
vn -0.6299574 0.559349 -0.5387787
vn -0.3146755 0.5012558 -0.8060534
vn -0.1136423 0.4615229 -0.8798193
vn 0.370716 0.5619685 -0.7394329
vn 0.242018 0.587095 -0.772494
vn 0.8224173 0.5003699 -0.2706657
vn 0.9045953 0.3490412 -0.2446989
vn 0.8024449 0.2690625 -0.5326232
vn 0.6947868 0.5901186 -0.4111342
vn 0.6423127 0.6575972 0.3937008
vn 0.629957 0.5593488 0.5387794
vn 0.6041935 0.63205 0.4852454
vn 0.3436398 0.5916708 0.7292718
vn -0.1068308 0.5221778 0.8461192
vn 0.5606378 0.5908153 0.5801919
vn -0.2420191 0.5870956 0.7724931
vn -0.6918285 0.6826167 0.2353889
vn -0.3547131 0.5834544 0.7305885
vn 0.7531248 0.5116656 0.4135233
vn -0.8233819 0.5351985 0.1886923
vn 0.7770549 0.1592614 0.6089511
vn 0.7534494 0.5511442 0.3585443
vn 0.7737615 0.6039059 -0.1912878
vn -0.2420172 0.5870952 -0.772494
vn -0.8233822 0.535198 -0.1886927
vn -0.5053999 0.5401914 0.6728776
vn -0.5454264 0.6152098 0.5692337
vn 0.3537155 0.9232554 0.1499495
vn 0.3471182 0.9376103 0.01989684
vn 0.2299435 0.9476209 -0.2216772
vn -0.4238406 0.8266757 -0.3700897
vn -0.36948 0.8396258 -0.3981371
vn -0.6577517 0.7470385 0.0964174
vn -0.5125675 0.8586403 0.003374996
vn -0.8499445 0.4558716 -0.2641502
vn -0.5301099 0.6248838 -0.5731525
vn -0.6459137 0.6853517 0.3362865
vn -0.6381701 0.7635205 0.09887071
vn -0.7940693 0.4283761 0.4312167
vn -0.5450603 0.6244881 0.5593961
vn -0.5410242 0.629313 0.557905
vn -0.8748159 0.3593027 0.3249595
vn -0.9070586 0.3451449 0.2410803
vn -0.3783686 0.7484205 0.5447053
vn -0.7965981 0.5900544 -0.1314047
vn -0.823382 0.5351983 -0.1886924
vn -0.4928667 0.8542306 0.1654465
vn -0.8427717 -0.04199922 0.5366302
vn -0.5897381 0.4663943 0.6593067
vn -0.5619879 0.6216772 0.5456072
vn -0.3284308 0.6168005 0.7153254
vn -0.4258732 0.3423028 0.8375326
vn -0.623986 0.3695891 0.6885096
vn -0.1918586 0.6106678 0.7682937
vn -0.3328746 0.4217452 -0.8434013
vn 0.4088803 0.4052799 -0.8176583
vn -0.4742994 0.851083 -0.2251619
vn 0.1881485 0.795867 -0.5754962
vn -0.6538392 0.4677235 -0.5947513
vn -0.5667387 0.8222421 -0.05220401
vn -0.1478393 0.5984342 -0.7874136
vn -0.9046683 0.316885 -0.2848845
vn -0.1323708 0.4747727 -0.8700971
vn -0.9191544 0.3616805 -0.1560203
vn -0.7984524 0.3681417 -0.4763878
vn -0.6163616 0.5769913 -0.5358914
vn -0.7198278 0.5890524 -0.3672401
vn -0.7815934 0.6117476 0.1219695
vn -0.6682784 0.7392596 -0.08306259
vn -0.4279233 0.4996934 0.7531191
vn 0.06804614 -0.9962874 0.05273632
vn 0.4064876 0.7911497 -0.4570012
vn 0.366066 0.4157277 -0.832566
vn -0.6542254 0.2296661 -0.720585
vn 0.8999234 0.3571483 -0.2501657
vn 0.6991047 0.4909762 -0.5198027
vn 0.7388936 0.4848372 -0.4679416
vn 0.6140751 0.6022899 -0.5100574
vn 0.9498602 0.2736014 0.1513536
vn 0.7088946 0.3771422 -0.5960137
vn 0.2420184 0.5870947 -0.7724939
vn 0.123761 0.7138984 -0.689226
vn 0.639675 0.3651507 -0.6763734
vn -0.1138557 0.3031203 -0.9461263
vn 0.5936204 0.6363959 -0.4925597
vn 0.6821687 0.400299 -0.6118879
vn 0.5835032 0.6164095 0.5287375
vn 0.6696829 0.1087354 0.7346439
vn 0.8443492 0.3626586 0.3944023
vn 0.7544692 0.5594866 0.3431486
vn 0.6721306 0.6054721 -0.4261974
vn 0.7356091 0.523322 0.4301318
vn 0.7230143 0.6448099 0.2479325
vn 0.9051524 0.2882337 -0.3124427
vn -0.07042712 -0.9975116 0.00327593
vn 0.835036 0.4979457 -0.2340191
vn 0.748327 0.5714956 0.3367487
vn 0.649141 0.6806741 0.3395566
vn 0.1334053 0.7156554 0.685595
vn 0.3082242 0.9020233 0.3022446
vn 0.7497092 0.6209804 -0.2287347
vn -0.1134165 0.3199552 0.9406196
vn 0.9117285 0.2485643 0.327058
vn 0.6218128 0.5736818 0.5331399
vn 0.6749173 0.6477943 0.3533401
vn 0.6221582 0.5748011 0.5315289
vn 0.5613658 0.1248772 0.8180919
vn 0.7492967 0.09265831 0.6557202
vn -0.09157283 0.6025413 0.7928168
vn 0.9117284 0.2485643 0.3270581
vn 0.10374 0.4384649 0.8927411
vn 0.06856558 0.4043894 0.9120131
vn 0.05555938 0.4399821 0.8962862
vn -0.3403299 0.8160473 0.4671642
vn 0.2096454 0.8272641 0.5212322
vn -0.0195676 -0.9828355 0.1834438
vn -0.7223184 0.6805042 0.1231671
vn -0.05622274 -0.997911 0.0318229
vn -0.4377238 0.693643 0.5720641
vn -0.7743937 0.4725313 0.4207475
vn -0.04240462 -0.9986967 0.0284025
vn 0.05209262 -0.9982752 0.02707496
vn -0.06070252 -0.9981533 -0.002304812
vn 0.2872343 0.4961124 -0.8193711
vn -0.0246268 -0.9995631 0.01634604
vn -0.04171461 -0.9991277 0.001940461
vt 0.1163486 0.01327279
vt 0.1150414 0.00624543
vt 0.1203806 0.009640561
vt 0.05851895 -0.04067541
vt 0.04706547 -0.03474377
vt 0.04473332 -0.03995141
vt 0.1339851 0.06079351
vt 0.1326017 0.05320541
vt 0.1373373 0.05581994
vt 0.03585333 -0.07614061
vt 0.0353206 -0.06437416
vt 0.02939503 -0.06505843
vt -0.1425536 0.02775471
vt -0.1375735 0.024725
vt -0.1354719 0.03161296
vt -0.1409324 0.03294666
vt -0.04443135 -0.05654184
vt -0.0337811 -0.05264766
vt -0.03613563 -0.04814753
vt -0.1116235 0.002628276
vt -0.1072176 0.008112061
vt -0.1136806 0.009169451
vt -0.09711622 0.03973197
vt -0.09356126 0.03661302
vt -0.0922428 0.04433993
vt -0.007412422 0.1059464
vt -0.006507894 0.09984355
vt -0.0001291861 0.1050726
vt -0.06693672 0.05862512
vt -0.07039253 0.04901208
vt -0.06510108 0.05152841
vt 0.04845304 0.09057491
vt 0.04991701 0.08010618
vt 0.05174423 0.08584048
vt 0.04678925 -0.04391093
vt 0.03564858 -0.04728725
vt 0.03957588 -0.04996476
vt 0.05385829 -0.02896646
vt 0.04222308 -0.01522503
vt 0.0394608 -0.06382278
vt -0.07079779 0.00025102
vt -0.06785844 -0.002151747
vt -0.0508459 -0.0004901905
vt -0.06049614 -0.01656145
vt -0.0987925 -0.009955896
vt -0.09098165 -0.01547887
vt -0.1225851 0.05662566
vt -0.1233292 0.0441772
vt -0.120762 0.04276372
vt -0.02132487 0.06195014
vt -0.008547592 0.06380682
vt -0.01123111 0.06649227
vt 0.07022782 0.03039302
vt 0.06429569 0.02417154
vt 0.06333892 0.007193999
vt -0.07235207 0.02860284
vt -0.06400902 0.005279622
vt -0.04692355 0.02124993
vt -0.09356125 0.0366131
vt -0.09193572 0.03518694
vt -0.08848433 0.03215886
vt -0.08468477 0.04095344
vt -0.09224278 0.04434
vt -0.1023495 0.01643569
vt -0.1109544 0.009506213
vt -0.09820445 0.003820833
vt -0.08734595 -0.0194564
vt -0.08209303 0.0002373085
vt -0.102461 0.002456674
vt -0.1091906 -0.03836202
vt -0.1083311 -0.03858197
vt -0.09892516 -0.04098881
vt -0.07658496 -0.02531066
vt -0.1224393 -0.02303836
vt -0.1225587 -0.02811584
vt -0.1161623 -0.02952125
vt 0.04943809 -0.1192335
vt 0.03683343 -0.1049918
vt 0.03964947 -0.1174168
vt 0.09385354 0.1097532
vt 0.08995531 0.1142681
vt 0.08606978 0.1102063
vt -0.0963506 0.04001565
vt -0.08517614 0.05399192
vt -0.09815313 0.06305196
vt -0.04933705 -0.06787713
vt -0.06402595 -0.05259879
vt -0.07502443 -0.07148713
vt 0.08840509 -0.02848807
vt 0.09916341 -0.0191433
vt 0.09045358 -0.01723795
vt 0.09706185 -0.01089129
vt 0.1026139 -0.02452251
vt 0.1035571 -0.02416344
vt 0.1142404 -0.0200961
vt 0.08915707 -0.01995394
vt 0.07034122 -0.02301744
vt 0.0937359 -0.03394214
vt 0.09339133 -0.003283117
vt 0.09242786 -0.003583443
vt 0.08078963 -0.02715521
vt 0.09174229 0.04102358
vt 0.08078132 0.0377781
vt 0.08135566 0.02539678
vt 0.123439 -0.02009584
vt 0.1206221 -0.01469599
vt 0.1135403 -0.01761208
vt 0.09384199 0.0513232
vt 0.0884889 0.04795
vt 0.08359614 0.04486688
vt 0.09797092 0.04896847
vt -0.01403034 0.07396893
vt -0.01705024 0.05274772
vt -0.01229863 0.05678063
vt 0.04062147 0.0351205
vt 0.05313195 0.02251758
vt 0.06641048 0.03576221
vt 0.1369216 -0.02459457
vt 0.1240227 -0.03438226
vt 0.1211188 -0.03989673
vt -0.01582368 0.09903374
vt -0.01629292 0.09303369
vt -0.01666769 0.0882415
vt -0.005769319 0.08324515
vt 0.1431315 0.03707618
vt 0.1380445 0.03523672
vt 0.1450232 0.03169287
vt 0.1107933 -0.01048396
vt 0.1192639 -0.0223121
vt 0.1257869 -0.02092147
vt 0.06216673 -0.11165
vt 0.06309447 -0.1048703
vt 0.0531637 -0.1041649
vt -0.1041147 -0.000866325
vt -0.09563619 0.006217194
vt -0.0965118 0.00636045
vt -0.1072176 0.008111979
vt -0.06101677 0.06194065
vt -0.05666276 0.07362657
vt -0.05816639 0.07518072
vt -0.06145475 0.07857956
vt 0.05912319 0.0560865
vt 0.07358978 0.06335972
vt 0.07542674 0.06780168
vt 0.04216942 0.05050395
vt 0.02441185 0.03766564
vt 0.04800428 0.04222872
vt 0.04576602 -0.06932449
vt 0.05675858 -0.06549333
vt 0.04297864 -0.06466822
vt 0.02294023 -0.07018344
vt 0.0337107 -0.07728019
vt 0.02736423 -0.06613359
vt -0.01837512 -0.06345384
vt -0.02086902 -0.07496528
vt -0.01345849 -0.06578012
vt -0.05831786 0.0218646
vt -0.06919928 0.0186729
vt -0.05564706 0.01554907
vt -0.05754527 0.00736321
vt -0.07109152 0.01051287
vt -0.06239891 0.002734428
vt -0.006173878 0.06410843
vt -0.01468879 0.07208099
vt -0.01347151 0.06485249
vt -0.02373179 0.03387531
vt -0.01984796 0.04332354
vt -0.02767294 0.03808414
vt -0.080727 0.0725231
vt -0.0833178 0.07812227
vt -0.08848549 0.07536067
vt -0.09354527 0.01104941
vt -0.09877244 0.02189473
vt -0.1066351 0.02442951
vt 0.02945412 0.07549064
vt 0.02260426 0.07089607
vt 0.0257266 0.05926872
vt -0.006224928 0.04280041
vt -0.01836153 0.04308576
vt -0.01573611 0.03513142
vt 0.02603067 0.09997343
vt 0.008525142 0.08665263
vt 0.01454635 0.08558497
vt 0.04065298 0.04977025
vt 0.04652442 0.04152094
vt 0.05216721 0.04800599
vt 0.04051875 0.04903261
vt 0.05203366 0.04727276
vt 0.05068711 0.05554024
vt -0.007243221 0.09461127
vt 0.001435645 0.1030031
vt 0.002631311 0.1101487
vt -0.01551752 0.1106266
vt -0.0160846 0.1034039
vt -0.003950801 0.1030173
vt 0.07149859 0.04132614
vt 0.06433385 0.02932015
vt 0.06475777 0.0259028
vt -0.04781987 0.0551264
vt -0.03457995 0.06258445
vt -0.04220618 0.06835968
vt -0.05862958 0.05690982
vt -0.05347012 0.07032673
vt -0.05666269 0.07362656
vt 0.010424 0.01993702
vt 0.00980384 0.02332425
vt 0.0001361336 0.01585354
vt 0.07359922 0.1181321
vt 0.07968425 0.1056958
vt 0.08067514 0.1084538
vt 0.05828864 0.08536694
vt 0.06383501 0.07950576
vt 0.06736415 0.08078733
vt 0.03729687 0.05628026
vt 0.0439193 0.06807034
vt 0.03798807 0.07354175
vt 0.0804764 0.04685201
vt 0.07689851 0.0457136
vt 0.06934906 0.03449449
vt 0.109293 0.07351416
vt 0.1028515 0.06446273
vt 0.1083479 0.0629859
vt 0.06582429 0.09225637
vt 0.07474728 0.08738627
vt 0.07992651 0.09721465
vt 0.09857436 0.03297771
vt 0.0930369 0.03429218
vt 0.08165851 0.02216542
vt -0.1248333 0.01799668
vt -0.1194566 0.01659448
vt -0.120241 0.02332525
vt -0.1337619 -0.01468515
vt -0.1350461 -0.01159855
vt -0.1401609 -0.00942736
vt -0.03436322 0.03115589
vt -0.03308285 0.02450162
vt -0.0303824 0.02253088
vt -0.05488795 -0.06637529
vt -0.06006206 -0.06303863
vt -0.07623537 -0.067283
vt -0.09929821 0.03499975
vt -0.08288316 0.03818357
vt -0.09563979 0.04385399
vt -0.006652704 0.04821768
vt -0.002086311 0.03574913
vt 0.003548601 0.03326871
vt -0.09714548 -0.002395002
vt -0.08863328 -0.01836625
vt -0.08757252 -0.004014383
vt -0.04389446 0.07017171
vt -0.06065039 0.07859305
vt -0.08200204 0.07779119
vt -0.1008337 0.002798584
vt -0.1027223 -0.01146797
vt -0.08554564 -0.01899416
vt -0.04748739 0.07357557
vt -0.0548038 0.0829381
vt -0.06743227 0.07448589
vt -0.05807225 0.04971744
vt -0.08855613 0.05084498
vt -0.07998419 0.04261646
vt -0.04878589 0.02371228
vt -0.07084864 0.01709471
vt -0.06219908 0.00820474
vt -0.04591072 0.02467073
vt -0.05431659 0.03379146
vt -0.07132386 0.03207669
vt -0.02118254 0.06117719
vt -0.00737174 0.05201207
vt -0.008404404 0.0630279
vt -0.02271419 0.009583827
vt -0.02706263 0.02279831
vt -0.04132573 0.03124235
vt 0.09447619 0.04038422
vt 0.09160243 0.02969982
vt 0.09153931 0.01578841
vt -0.02385243 -0.05038044
vt -0.007637813 -0.06723423
vt 0.01169209 -0.06874647
vt -0.03775182 -0.06672645
vt -0.04726693 -0.07383396
vt -0.04602706 -0.08366505
vt -0.1246699 -0.01194298
vt -0.1193297 -0.003596152
vt -0.1270446 -0.001679922
vt -0.1154153 0.05461289
vt -0.1075767 0.05329021
vt -0.09645447 0.0574555
vt 0.09452059 0.1088431
vt 0.08673984 0.1093451
vt 0.0798094 0.103165
vt -0.133215 -0.0349596
vt -0.1175865 -0.03705965
vt -0.1054898 -0.03306232
vt -0.1037987 -0.04001114
vt -0.1079594 -0.02524584
vt -0.1140353 -0.03177077
vt -0.08324368 -0.05959816
vt -0.09547926 -0.05480434
vt -0.1066849 -0.0664243
vt 0.1095397 0.05053646
vt 0.1334174 0.04544314
vt 0.1373089 0.04946049
vt -0.1276313 0.01611649
vt -0.1367203 0.01801758
vt -0.1381417 0.01095778
vt -0.1224393 -0.02303836
vt -0.1161623 -0.02952126
vt -0.1055669 -0.03184928
vt -0.08518899 -0.03712841
vt -0.09104261 -0.02837027
vt -0.097608 -0.0302992
vt -0.1317039 -0.002064856
vt -0.1380106 0.0106275
vt -0.1433335 0.01300376
vt -0.08913758 0.02407859
vt -0.107312 0.02563311
vt -0.123185 0.0154624
vt -0.08047032 -0.08277375
vt -0.06276052 -0.07542828
vt -0.06949292 -0.06225992
vt -0.1103622 0.005565861
vt -0.1142711 -0.008697785
vt -0.09653156 -0.0129445
vt 0.1225851 0.001600487
vt 0.1014017 0.01122268
vt 0.1036292 0.003142826
vt 0.1138528 0.04442667
vt 0.1093019 0.05146484
vt 0.09371524 0.04871874
vt 0.1412188 0.02002893
vt 0.1364402 0.01712233
vt 0.1376061 0.01321409
vt 0.1248554 -0.02339613
vt 0.124748 -0.0193191
vt 0.1099911 -0.01277518
vt -0.07634304 -0.06833388
vt -0.06556834 -0.07925318
vt -0.05060431 -0.06511036
vt 0.1039932 -0.01319163
vt 0.1041033 -0.001757066
vt 0.0833207 0.005012017
vt 0.08740338 -0.04230212
vt 0.07063675 -0.0204479
vt 0.06556149 -0.04667376
vt 0.02233367 0.1189183
vt 0.03653061 0.1017537
vt 0.02620115 0.1177763
vt 0.02731188 -0.01940606
vt 0.007023835 -0.002029387
vt -0.01371796 -0.006384767
vt 0.07234522 -0.1072863
vt 0.05736886 -0.09769107
vt 0.05369098 -0.09934483
vt 0.1087666 -0.01495002
vt 0.09915663 -0.02547209
vt 0.1168748 -0.02702945
vt 0.06224452 -0.03925712
vt 0.06214246 -0.05726252
vt 0.08482389 -0.05178037
vt 0.07073544 0.002968318
vt 0.04770795 -0.0008047461
vt 0.05767977 -0.01984891
vt 0.04781878 -0.0455018
vt 0.05214015 -0.04596701
vt 0.05487769 -0.03771561
vt 0.01406568 -0.13437
vt 0.009164969 -0.1254181
vt 0.005153903 -0.1237441
vt 0.1222605 0.04490162
vt 0.1086259 0.04743663
vt 0.1130366 0.04091814
vt 0.1445054 0.02658612
vt 0.1366059 0.02037754
vt 0.1413817 0.0217192
vt 0.1158066 -0.01189468
vt 0.1163052 -0.02057404
vt 0.1233206 -0.01750158
vt 0.1025967 -0.04493432
vt 0.1066756 -0.03524851
vt 0.08643745 -0.03403897
vt 0.1222817 -0.01099028
vt 0.1157082 -0.01211855
vt 0.123217 -0.01773238
vt 0.1449774 0.02975264
vt 0.1408667 0.02729918
vt 0.1447512 0.02260832
vt 0.1375182 0.03900534
vt 0.1406088 0.03294079
vt 0.1445756 0.0356208
vt 0.08159638 0.02457121
vt 0.08889569 0.02906571
vt 0.08421809 0.03539538
vt 0.1413817 0.02171919
vt 0.1366059 0.02037754
vt 0.1319757 0.01316352
vt 0.09820911 0.01313724
vt 0.1060732 0.0178365
vt 0.1087807 0.02863953
vt 0.1188078 0.02702172
vt 0.1072619 0.02169594
vt 0.1104406 0.007287201
vt 0.1072951 0.006778165
vt 0.1040918 0.02118148
vt 0.09622981 0.01647886
vt 0.004343307 0.01350494
vt 0.02028768 0.02385242
vt 0.01899128 0.03617907
vt 0.06832166 -0.03956982
vt 0.05795618 -0.02912469
vt 0.04253324 -0.04023442
vt 0.04694381 -0.06466836
vt 0.05798689 -0.05076168
vt 0.06026177 -0.02938547
vt -0.01912646 0.02651675
vt 0.0002044359 0.02801629
vt -0.01721888 0.05064169
vt -0.03180521 -0.06145545
vt 0.003198866 -0.08083172
vt 0.02555792 -0.06687587
vt 0.02759765 0.02190383
vt 0.05073246 0.009275532
vt 0.05122678 0.02627282
vt -0.003134989 0.06590226
vt 0.01312504 0.08059119
vt 0.00709706 0.08161992
vt -0.04238543 -0.04256251
vt -0.03162345 -0.06001465
vt 0.02574359 -0.06539354
vt -0.03424956 -0.01372753
vt -0.03873474 -0.03361014
vt 0.02970773 -0.05548357
vt -0.03132784 -0.009297876
vt -0.04175633 -0.02279706
vt 0.02085793 -0.06654128
vt -0.10672 -0.02471276
vt -0.0864395 -0.02762477
vt -0.08319353 -0.01087827
vt -0.01073159 -0.002510454
vt -0.02808515 -0.006876093
vt 0.02498853 -0.06329726
vt 0.02830006 -0.01640226
vt -0.01278992 -0.003572007
vt 0.0223251 -0.06471035
o group1622271394
g mesh1622271394
usemtl mat16
f 3/3/1 2/2/1 1/1/1
f 1/6/2 5/5/2 4/4/2
f 5/9/3 7/8/3 6/7/3
f 6/12/4 8/11/4 4/10/4
f 8/16/5 11/15/5 10/14/5 9/13/5
f 9/19/6 12/18/6 4/17/6
f 12/22/7 14/21/7 13/20/7
f 13/25/8 16/24/8 15/23/8
f 15/28/9 18/27/9 17/26/9
f 17/31/10 19/30/10 4/29/10
f 19/34/11 21/33/11 20/32/11
f 20/37/12 3/36/12 4/35/12
f 24/40/13 23/39/13 22/38/13
f 27/43/14 26/42/14 25/41/14
f 30/46/15 29/45/15 28/44/15
f 33/49/16 32/48/16 31/47/16
f 25/52/17 26/51/17 34/50/17
f 36/55/18 35/54/18 34/53/18
f 38/58/19 37/57/19 26/56/19
f 13/63/20 39/62/20 29/61/20 31/60/20 16/59/20
f 41/66/21 39/65/21 40/64/21
f 43/69/22 42/68/22 28/67/22
f 45/73/23 43/72/23 40/71/23 44/70/23
f 14/76/24 12/75/24 9/74/24
f 48/79/25 47/78/25 46/77/25
f 11/82/26 8/81/26 6/80/26
f 50/85/27 49/84/27 45/83/27
f 52/88/28 51/87/28 49/86/28
f 52/91/29 54/90/29 53/89/29
f 58/95/30 57/94/30 56/93/30 55/92/30
f 56/98/31 23/97/31 55/96/31
f 59/101/32 56/100/32 57/99/32
f 60/104/33 57/103/33 58/102/33
f 62/107/34 61/106/34 2/105/34
f 20/111/35 63/110/35 2/109/35 3/108/35
f 65/114/36 64/113/36 63/112/36
f 64/117/37 24/116/37 59/115/37
f 64/120/38 65/119/38 66/118/38
f 32/124/39 66/123/39 21/122/39 19/121/39
f 1/127/40 7/126/40 5/125/40
f 7/130/41 67/129/41 54/128/41
f 48/133/42 46/132/42 10/131/42
f 14/137/43 44/136/43 40/135/43 39/134/43
f 15/141/44 16/140/44 31/139/44 32/138/44
f 21/144/45 66/143/45 65/142/45
f 35/147/46 24/146/46 68/145/46
f 1/150/47 4/149/47 3/148/47
f 6/153/48 4/152/48 5/151/48
f 9/156/49 4/155/49 8/154/49
f 13/159/50 4/158/50 12/157/50
f 15/162/51 4/161/51 13/160/51
f 17/165/52 4/164/52 15/163/52
f 20/168/53 4/167/53 19/166/53
f 19/171/54 17/170/54 18/169/54
f 19/174/55 18/173/55 32/172/55
f 32/177/56 18/176/56 15/175/56
f 34/180/57 69/179/57 33/178/57
f 68/183/58 64/182/58 66/181/58
f 34/186/59 35/185/59 68/184/59
f 69/189/60 34/188/60 68/187/60
f 66/192/61 69/191/61 68/190/61
f 33/195/62 69/194/62 66/193/62
f 25/198/63 33/197/63 31/196/63
f 29/201/64 30/200/64 25/199/64
f 31/204/65 29/203/65 25/202/65
f 34/207/66 33/206/66 25/205/66
f 32/210/67 33/209/67 66/208/67
f 71/213/68 70/212/68 63/211/68
f 63/216/69 70/215/69 65/214/69
f 65/219/70 70/218/70 71/217/70
f 21/222/71 71/221/71 20/220/71
f 20/225/72 71/224/72 63/223/72
f 65/228/73 71/227/73 21/226/73
f 14/231/74 72/230/74 13/229/74
f 13/234/75 72/233/75 39/232/75
f 39/237/76 72/236/76 14/235/76
f 29/240/77 41/239/77 73/238/77
f 39/243/78 41/242/78 29/241/78
f 73/246/79 41/245/79 40/244/79
f 43/249/80 73/248/80 40/247/80
f 29/252/81 73/251/81 28/250/81
f 28/255/82 73/254/82 43/253/82
f 25/258/83 30/257/83 27/256/83
f 27/261/84 30/260/84 28/259/84
f 38/264/85 27/263/85 28/262/85
f 26/267/86 27/266/86 38/265/86
f 26/270/87 74/269/87 34/268/87
f 34/273/88 74/272/88 37/271/88
f 37/276/89 74/275/89 26/274/89
f 36/279/90 37/278/90 38/277/90
f 44/282/91 76/281/91 75/280/91
f 46/285/92 76/284/92 44/283/92
f 75/288/93 76/287/93 46/286/93
f 48/291/94 11/290/94 6/289/94
f 47/294/95 48/293/95 6/292/95
f 54/297/96 52/296/96 47/295/96
f 77/300/97 54/299/97 47/298/97
f 6/303/98 77/302/98 47/301/98
f 10/306/99 11/305/99 48/304/99
f 44/309/100 14/308/100 9/307/100
f 10/312/101 46/311/101 44/310/101
f 9/315/102 10/314/102 44/313/102
f 44/318/103 75/317/103 45/316/103
f 50/321/104 75/320/104 46/319/104
f 45/324/105 75/323/105 50/322/105
f 47/327/106 50/326/106 46/325/106
f 49/330/107 50/329/107 47/328/107
f 7/333/108 77/332/108 6/331/108
f 54/336/109 77/335/109 7/334/109
f 49/339/110 47/338/110 52/337/110
f 51/342/111 52/341/111 53/340/111
f 23/345/112 51/344/112 53/343/112
f 55/348/113 23/347/113 53/346/113
f 49/351/114 51/350/114 23/349/114
f 55/354/115 53/353/115 67/352/115
f 67/357/116 53/356/116 54/355/116
f 56/360/117 22/359/117 23/358/117
f 59/363/118 22/362/118 56/361/118
f 67/366/119 62/365/119 58/364/119
f 58/369/120 62/368/120 2/367/120
f 78/372/121 58/371/121 2/370/121
f 63/375/122 78/374/122 2/373/122
f 61/378/123 62/377/123 67/376/123
f 55/381/124 67/380/124 58/379/124
f 61/384/125 67/383/125 7/382/125
f 2/387/126 61/386/126 1/385/126
f 1/390/127 61/389/127 7/388/127
f 58/393/128 78/392/128 79/391/128
f 79/396/129 78/395/129 63/394/129
f 58/399/130 79/398/130 60/397/130
f 64/402/131 79/401/131 63/400/131
f 60/405/132 79/404/132 64/403/132
f 57/408/133 60/407/133 59/406/133
f 59/411/134 60/410/134 64/409/134
f 22/414/135 59/413/135 24/412/135
f 34/417/136 37/416/136 36/415/136
f 24/420/137 36/419/137 38/418/137
f 35/423/138 36/422/138 24/421/138
f 64/426/139 68/425/139 24/424/139
f 24/429/140 38/428/140 28/427/140
f 24/432/141 28/431/141 42/430/141
f 24/435/142 42/434/142 45/433/142
f 45/438/143 42/437/143 43/436/143
f 24/441/144 45/440/144 49/439/144
f 24/444/145 49/443/145 23/442/145
